<?xml version="1.0" encoding="UTF-8"?>
<!DOCTYPE svg PUBLIC "-//W3C//DTD SVG 1.1//EN" "http://www.w3.org/Graphics/SVG/1.1/DTD/svg11.dtd">
<svg version="1.2" width="148mm" height="105mm" viewBox="0 0 14800 10500" preserveAspectRatio="xMidYMid" fill-rule="evenodd" stroke-width="28.222" stroke-linejoin="round" xmlns="http://www.w3.org/2000/svg" xmlns:ooo="http://xml.openoffice.org/svg/export" xmlns:xlink="http://www.w3.org/1999/xlink" xmlns:presentation="http://sun.com/xmlns/staroffice/presentation" xmlns:smil="http://www.w3.org/2001/SMIL20/" xmlns:anim="urn:oasis:names:tc:opendocument:xmlns:animation:1.0" xml:space="preserve">
 <defs class="ClipPathGroup">
  <clipPath id="presentation_clip_path" clipPathUnits="userSpaceOnUse">
   <rect x="0" y="0" width="14800" height="10500"/>
  </clipPath>
  <clipPath id="presentation_clip_path_shrink" clipPathUnits="userSpaceOnUse">
   <rect x="14" y="10" width="14771" height="10479"/>
  </clipPath>
 </defs>
 <defs class="TextShapeIndex">
  <g ooo:slide="id1" ooo:id-list="id3 id4"/>
 </defs>
 <defs class="EmbeddedBulletChars">
  <g id="bullet-char-template-57356" transform="scale(0.00048828125,-0.00048828125)">
   <path d="M 580,1141 L 1163,571 580,0 -4,571 580,1141 Z"/>
  </g>
  <g id="bullet-char-template-57354" transform="scale(0.00048828125,-0.00048828125)">
   <path d="M 8,1128 L 1137,1128 1137,0 8,0 8,1128 Z"/>
  </g>
  <g id="bullet-char-template-10146" transform="scale(0.00048828125,-0.00048828125)">
   <path d="M 174,0 L 602,739 174,1481 1456,739 174,0 Z M 1358,739 L 309,1346 659,739 1358,739 Z"/>
  </g>
  <g id="bullet-char-template-10132" transform="scale(0.00048828125,-0.00048828125)">
   <path d="M 2015,739 L 1276,0 717,0 1260,543 174,543 174,936 1260,936 717,1481 1274,1481 2015,739 Z"/>
  </g>
  <g id="bullet-char-template-10007" transform="scale(0.00048828125,-0.00048828125)">
   <path d="M 0,-2 C -7,14 -16,27 -25,37 L 356,567 C 262,823 215,952 215,954 215,979 228,992 255,992 264,992 276,990 289,987 310,991 331,999 354,1012 L 381,999 492,748 772,1049 836,1024 860,1049 C 881,1039 901,1025 922,1006 886,937 835,863 770,784 769,783 710,716 594,584 L 774,223 C 774,196 753,168 711,139 L 727,119 C 717,90 699,76 672,76 641,76 570,178 457,381 L 164,-76 C 142,-110 111,-127 72,-127 30,-127 9,-110 8,-76 1,-67 -2,-52 -2,-32 -2,-23 -1,-13 0,-2 Z"/>
  </g>
  <g id="bullet-char-template-10004" transform="scale(0.00048828125,-0.00048828125)">
   <path d="M 285,-33 C 182,-33 111,30 74,156 52,228 41,333 41,471 41,549 55,616 82,672 116,743 169,778 240,778 293,778 328,747 346,684 L 369,508 C 377,444 397,411 428,410 L 1163,1116 C 1174,1127 1196,1133 1229,1133 1271,1133 1292,1118 1292,1087 L 1292,965 C 1292,929 1282,901 1262,881 L 442,47 C 390,-6 338,-33 285,-33 Z"/>
  </g>
  <g id="bullet-char-template-9679" transform="scale(0.00048828125,-0.00048828125)">
   <path d="M 813,0 C 632,0 489,54 383,161 276,268 223,411 223,592 223,773 276,916 383,1023 489,1130 632,1184 813,1184 992,1184 1136,1130 1245,1023 1353,916 1407,772 1407,592 1407,412 1353,268 1245,161 1136,54 992,0 813,0 Z"/>
  </g>
  <g id="bullet-char-template-8226" transform="scale(0.00048828125,-0.00048828125)">
   <path d="M 346,457 C 273,457 209,483 155,535 101,586 74,649 74,723 74,796 101,859 155,911 209,963 273,989 346,989 419,989 480,963 531,910 582,859 608,796 608,723 608,648 583,586 532,535 482,483 420,457 346,457 Z"/>
  </g>
  <g id="bullet-char-template-8211" transform="scale(0.00048828125,-0.00048828125)">
   <path d="M -4,459 L 1135,459 1135,606 -4,606 -4,459 Z"/>
  </g>
  <g id="bullet-char-template-61548" transform="scale(0.00048828125,-0.00048828125)">
   <path d="M 173,740 C 173,903 231,1043 346,1159 462,1274 601,1332 765,1332 928,1332 1067,1274 1183,1159 1299,1043 1357,903 1357,740 1357,577 1299,437 1183,322 1067,206 928,148 765,148 601,148 462,206 346,322 231,437 173,577 173,740 Z"/>
  </g>
 </defs>
 <g>
  <g id="id2" class="Master_Slide">
   <g id="bg-id2" class="Background"/>
   <g id="bo-id2" class="BackgroundObjects"/>
  </g>
 </g>
 <g class="SlideGroup">
  <g>
   <g id="container-id1">
    <g id="id1" class="Slide" clip-path="url(#presentation_clip_path)">
     <g class="Page">
      <g class="com.sun.star.drawing.CustomShape">
       <g id="id3">
        <rect class="BoundingBox" stroke="none" fill="none" x="2903" y="3221" width="9211" height="2860"/>
        <path fill="rgb(0,0,0)" stroke="none" d="M 12112,6079 L 12106,5937 12089,5794 12061,5653 12021,5513 11970,5374 11908,5237 11835,5102 11751,4969 11657,4839 11552,4712 11437,4589 11313,4469 11179,4353 11035,4242 10884,4135 10723,4033 10555,3936 10379,3845 10196,3759 10006,3678 9810,3604 9609,3536 9402,3474 9190,3419 8975,3370 8755,3328 8533,3293 8308,3264 8081,3243 7852,3229 7623,3222 7393,3222 7164,3229 6935,3243 6708,3264 6483,3293 6261,3328 6041,3370 5826,3419 5614,3474 5407,3536 5206,3604 5010,3678 4820,3759 4637,3845 4461,3936 4293,4033 4132,4135 3981,4242 3837,4353 3703,4469 3579,4589 3464,4712 3359,4839 3265,4969 3181,5102 3108,5237 3046,5374 2995,5513 2955,5653 2927,5794 2910,5937 2904,6079 5206,6078 5209,6007 5217,5936 5232,5865 5252,5795 5277,5726 5308,5657 5345,5590 5387,5523 5434,5458 5486,5395 5543,5333 5606,5273 5673,5215 5744,5160 5820,5106 5900,5055 5985,5007 6072,4961 6164,4918 6259,4878 6357,4841 6458,4806 6561,4776 6667,4748 6775,4723 6884,4702 6996,4685 7108,4671 7222,4660 7336,4653 7451,4649 7565,4649 7680,4653 7794,4660 7908,4671 8020,4685 8132,4702 8241,4723 8349,4748 8455,4776 8558,4806 8659,4841 8757,4878 8852,4918 8944,4961 9031,5007 9116,5055 9196,5106 9272,5160 9343,5215 9410,5273 9473,5333 9530,5395 9582,5458 9629,5523 9671,5590 9708,5657 9739,5726 9764,5795 9784,5865 9799,5936 9807,6007 9810,6078 12112,6079 Z"/>
        <path fill="none" stroke="rgb(0,0,0)" d="M 12112,6079 L 12106,5937 12089,5794 12061,5653 12021,5513 11970,5374 11908,5237 11835,5102 11751,4969 11657,4839 11552,4712 11437,4589 11313,4469 11179,4353 11035,4242 10884,4135 10723,4033 10555,3936 10379,3845 10196,3759 10006,3678 9810,3604 9609,3536 9402,3474 9190,3419 8975,3370 8755,3328 8533,3293 8308,3264 8081,3243 7852,3229 7623,3222 7393,3222 7164,3229 6935,3243 6708,3264 6483,3293 6261,3328 6041,3370 5826,3419 5614,3474 5407,3536 5206,3604 5010,3678 4820,3759 4637,3845 4461,3936 4293,4033 4132,4135 3981,4242 3837,4353 3703,4469 3579,4589 3464,4712 3359,4839 3265,4969 3181,5102 3108,5237 3046,5374 2995,5513 2955,5653 2927,5794 2910,5937 2904,6079 5206,6078 5209,6007 5217,5936 5232,5865 5252,5795 5277,5726 5308,5657 5345,5590 5387,5523 5434,5458 5486,5395 5543,5333 5606,5273 5673,5215 5744,5160 5820,5106 5900,5055 5985,5007 6072,4961 6164,4918 6259,4878 6357,4841 6458,4806 6561,4776 6667,4748 6775,4723 6884,4702 6996,4685 7108,4671 7222,4660 7336,4653 7451,4649 7565,4649 7680,4653 7794,4660 7908,4671 8020,4685 8132,4702 8241,4723 8349,4748 8455,4776 8558,4806 8659,4841 8757,4878 8852,4918 8944,4961 9031,5007 9116,5055 9196,5106 9272,5160 9343,5215 9410,5273 9473,5333 9530,5395 9582,5458 9629,5523 9671,5590 9708,5657 9739,5726 9764,5795 9784,5865 9799,5936 9807,6007 9810,6078 12112,6079 Z"/>
       </g>
      </g>
      <g class="com.sun.star.drawing.CustomShape">
       <g id="id4">
        <rect class="BoundingBox" stroke="none" fill="none" x="6713" y="6395" width="1909" height="1909"/>
        <path fill="rgb(0,0,0)" stroke="none" d="M 8620,7349 C 8620,7516 8576,7681 8492,7826 8409,7970 8288,8091 8144,8174 7999,8258 7834,8302 7667,8302 7500,8302 7335,8258 7191,8174 7046,8091 6925,7970 6842,7826 6758,7681 6714,7516 6714,7349 6714,7182 6758,7017 6842,6873 6925,6728 7046,6607 7190,6524 7335,6440 7500,6396 7667,6396 7834,6396 7999,6440 8143,6524 8288,6607 8409,6728 8492,6872 8576,7017 8620,7182 8620,7349 L 8620,7349 Z"/>
        <path fill="none" stroke="rgb(0,0,0)" d="M 8620,7349 C 8620,7516 8576,7681 8492,7826 8409,7970 8288,8091 8144,8174 7999,8258 7834,8302 7667,8302 7500,8302 7335,8258 7191,8174 7046,8091 6925,7970 6842,7826 6758,7681 6714,7516 6714,7349 6714,7182 6758,7017 6842,6873 6925,6728 7046,6607 7190,6524 7335,6440 7500,6396 7667,6396 7834,6396 7999,6440 8143,6524 8288,6607 8409,6728 8492,6872 8576,7017 8620,7182 8620,7349 L 8620,7349 Z"/>
       </g>
      </g>
     </g>
    </g>
   </g>
  </g>
 </g>
</svg>